<?xml version="1.0" encoding="UTF-8" standalone="no"?><!DOCTYPE svg PUBLIC "-//W3C//DTD SVG 1.1//EN" "http://www.w3.org/Graphics/SVG/1.1/DTD/svg11.dtd"><!-- Generated by graphviz version 2.40.1 (20161225.0304)
 --><!-- Title: dependencies Pages: 1 --><svg xmlns="http://www.w3.org/2000/svg" xmlns:xlink="http://www.w3.org/1999/xlink" width="576pt" height="718pt" viewBox="0.00 0.00 576.00 717.81">
<g id="graph0" class="graph" transform="scale(.986 .986) rotate(0) translate(4 724)">
<title>dependencies</title>
<polygon fill="#ffffff" stroke="transparent" points="-4,4 -4,-724 580.1741,-724 580.1741,4 -4,4"/>
<!-- UseSqlite.py -->
<g id="node1" class="node">
<title>UseSqlite.py</title>
<ellipse fill="#d3d3d3" stroke="#000000" cx="147.1741" cy="-612.9091" rx="40.5387" ry="18"/>
<text text-anchor="middle" x="147.1741" y="-609.9091" font-family="Times,serif" font-size="10.00" fill="#000000">UseSqlite.py</text>
</g>
<!-- sqlite3 -->
<g id="node2" class="node">
<title>sqlite3</title>
<ellipse fill="none" stroke="#000000" cx="288.1741" cy="-612.9091" rx="27" ry="18"/>
<text text-anchor="middle" x="288.1741" y="-609.9091" font-family="Times,serif" font-size="10.00" fill="#000000">sqlite3</text>
</g>
<!-- UseSqlite.py&#45;&gt;sqlite3 -->
<g id="edge1" class="edge">
<title>UseSqlite.py-&gt;sqlite3</title>
<path fill="none" stroke="#000000" d="M187.9572,-612.9091C207.7212,-612.9091 231.2991,-612.9091 250.6187,-612.9091"/>
<polygon fill="#000000" stroke="#000000" points="250.8626,-616.4092 260.8625,-612.9091 250.8625,-609.4092 250.8626,-616.4092"/>
</g>
<!-- WordFreq.py -->
<g id="node3" class="node">
<title>WordFreq.py</title>
<ellipse fill="#d3d3d3" stroke="#000000" cx="147.1741" cy="-537.9091" rx="41.7007" ry="18"/>
<text text-anchor="middle" x="147.1741" y="-534.9091" font-family="Times,serif" font-size="10.00" fill="#000000">WordFreq.py</text>
</g>
<!-- wordfreqCMD.py -->
<g id="node4" class="node">
<title>wordfreqCMD.py</title>
<ellipse fill="#d3d3d3" stroke="#000000" cx="288.1741" cy="-484.9091" rx="52.742" ry="18"/>
<text text-anchor="middle" x="288.1741" y="-481.9091" font-family="Times,serif" font-size="10.00" fill="#000000">wordfreqCMD.py</text>
</g>
<!-- WordFreq.py&#45;&gt;wordfreqCMD.py -->
<g id="edge2" class="edge">
<title>WordFreq.py-&gt;wordfreqCMD.py</title>
<path fill="none" stroke="#000000" d="M178.8173,-526.0149C197.8282,-518.8689 222.3211,-509.6623 243.3065,-501.7742"/>
<polygon fill="#000000" stroke="#000000" points="244.5402,-505.0497 252.6693,-498.2549 242.0772,-498.4973 244.5402,-505.0497"/>
</g>
<!-- string.py -->
<g id="node5" class="node">
<title>string.py</title>
<ellipse fill="none" stroke="#000000" cx="427.1741" cy="-694.9091" rx="30.6693" ry="18"/>
<text text-anchor="middle" x="427.1741" y="-691.9091" font-family="Times,serif" font-size="10.00" fill="#000000">string.py</text>
</g>
<!-- WordFreq.py&#45;&gt;string.py -->
<g id="edge3" class="edge">
<title>WordFreq.py-&gt;string.py</title>
<path fill="none" stroke="#000000" d="M188.9311,-539.6676C230.7906,-543.2782 295.4079,-554.0586 341.0449,-585.9091 367.8879,-604.6431 361.9091,-621.3168 382.3185,-646.9091 389.0387,-655.3359 396.9098,-664.0821 404.1663,-671.7635"/>
<polygon fill="#000000" stroke="#000000" points="401.7017,-674.2501 411.1526,-679.0388 406.7507,-669.4017 401.7017,-674.2501"/>
</g>
<!-- wordfreqCMD.py&#45;&gt;string.py -->
<g id="edge24" class="edge">
<title>wordfreqCMD.py-&gt;string.py</title>
<path fill="none" stroke="#000000" d="M310.0161,-501.5356C320.5575,-510.4774 332.6964,-522.2547 341.0449,-534.9091 370.2589,-579.1908 354.4855,-601.7467 382.3185,-646.9091 387.9734,-656.0848 395.5657,-665.027 402.8944,-672.6577"/>
<polygon fill="#000000" stroke="#000000" points="400.5059,-675.219 410.0537,-679.8114 405.4537,-670.2672 400.5059,-675.219"/>
</g>
<!-- pickle_idea.py -->
<g id="node10" class="node">
<title>pickle_idea.py</title>
<ellipse fill="#d3d3d3" stroke="#000000" cx="427.1741" cy="-318.9091" rx="44.7116" ry="18"/>
<text text-anchor="middle" x="427.1741" y="-315.9091" font-family="Times,serif" font-size="10.00" fill="#000000">pickle_idea.py</text>
</g>
<!-- wordfreqCMD.py&#45;&gt;pickle_idea.py -->
<g id="edge20" class="edge">
<title>wordfreqCMD.py-&gt;pickle_idea.py</title>
<path fill="none" stroke="#000000" d="M301.4805,-467.3684C319.3523,-444.0131 352.3373,-401.6154 382.3185,-366.9091 388.9987,-359.1762 396.4971,-350.9767 403.4228,-343.5845"/>
<polygon fill="#000000" stroke="#000000" points="406.3224,-345.612 410.6474,-335.9401 401.2349,-340.8039 406.3224,-345.612"/>
</g>
<!-- os.py -->
<g id="node14" class="node">
<title>os.py</title>
<ellipse fill="none" stroke="#000000" cx="427.1741" cy="-393.9091" rx="27" ry="18"/>
<text text-anchor="middle" x="427.1741" y="-390.9091" font-family="Times,serif" font-size="10.00" fill="#000000">os.py</text>
</g>
<!-- wordfreqCMD.py&#45;&gt;os.py -->
<g id="edge23" class="edge">
<title>wordfreqCMD.py-&gt;os.py</title>
<path fill="none" stroke="#000000" d="M312.7046,-468.8496C336.9664,-452.966 374.0412,-428.6939 399.3797,-412.1054"/>
<polygon fill="#000000" stroke="#000000" points="401.3631,-414.9904 407.8125,-406.5847 397.5289,-409.1338 401.3631,-414.9904"/>
</g>
<!-- collections.py -->
<g id="node16" class="node">
<title>collections.py</title>
<ellipse fill="none" stroke="#000000" cx="427.1741" cy="-619.9091" rx="43.3794" ry="18"/>
<text text-anchor="middle" x="427.1741" y="-616.9091" font-family="Times,serif" font-size="10.00" fill="#000000">collections.py</text>
</g>
<!-- wordfreqCMD.py&#45;&gt;collections.py -->
<g id="edge21" class="edge">
<title>wordfreqCMD.py-&gt;collections.py</title>
<path fill="none" stroke="#000000" d="M306.3724,-501.9387C316.6098,-511.5638 329.5966,-523.849 341.0449,-534.9091 362.1401,-555.2888 385.8437,-578.7215 403.036,-595.8153"/>
<polygon fill="#000000" stroke="#000000" points="400.8877,-598.6153 410.4443,-603.1895 405.8261,-593.6541 400.8877,-598.6153"/>
</g>
<!-- operator -->
<g id="node17" class="node">
<title>operator</title>
<ellipse fill="none" stroke="#000000" cx="427.1741" cy="-544.9091" rx="29.8108" ry="18"/>
<text text-anchor="middle" x="427.1741" y="-541.9091" font-family="Times,serif" font-size="10.00" fill="#000000">operator</text>
</g>
<!-- wordfreqCMD.py&#45;&gt;operator -->
<g id="edge22" class="edge">
<title>wordfreqCMD.py-&gt;operator</title>
<path fill="none" stroke="#000000" d="M321.1152,-499.1283C342.9342,-508.5465 371.4737,-520.8657 393.4509,-530.3523"/>
<polygon fill="#000000" stroke="#000000" points="392.1651,-533.6094 402.7334,-534.3591 394.9393,-527.1826 392.1651,-533.6094"/>
</g>
<!-- sys -->
<g id="node18" class="node">
<title>sys</title>
<ellipse fill="none" stroke="#000000" cx="427.1741" cy="-468.9091" rx="27" ry="18"/>
<text text-anchor="middle" x="427.1741" y="-465.9091" font-family="Times,serif" font-size="10.00" fill="#000000">sys</text>
</g>
<!-- wordfreqCMD.py&#45;&gt;sys -->
<g id="edge25" class="edge">
<title>wordfreqCMD.py-&gt;sys</title>
<path fill="none" stroke="#000000" d="M338.3563,-479.1327C355.5797,-477.1502 374.5225,-474.9697 390.474,-473.1336"/>
<polygon fill="#000000" stroke="#000000" points="390.9422,-476.6029 400.4764,-471.9822 390.1417,-469.6488 390.9422,-476.6029"/>
</g>
<!-- difficulty.py -->
<g id="node6" class="node">
<title>difficulty.py</title>
<ellipse fill="#d3d3d3" stroke="#000000" cx="147.1741" cy="-303.9091" rx="39.5314" ry="18"/>
<text text-anchor="middle" x="147.1741" y="-300.9091" font-family="Times,serif" font-size="10.00" fill="#000000">difficulty.py</text>
</g>
<!-- difficulty.py&#45;&gt;wordfreqCMD.py -->
<g id="edge4" class="edge">
<title>difficulty.py-&gt;wordfreqCMD.py</title>
<path fill="none" stroke="#000000" d="M160.4391,-320.9371C185.2955,-352.845 239.0052,-421.7916 268.2375,-459.3167"/>
<polygon fill="#000000" stroke="#000000" points="265.5203,-461.524 274.4269,-467.262 271.0425,-457.2222 265.5203,-461.524"/>
</g>
<!-- math -->
<g id="node7" class="node">
<title>math</title>
<ellipse fill="none" stroke="#000000" cx="288.1741" cy="-303.9091" rx="27" ry="18"/>
<text text-anchor="middle" x="288.1741" y="-300.9091" font-family="Times,serif" font-size="10.00" fill="#000000">math</text>
</g>
<!-- difficulty.py&#45;&gt;math -->
<g id="edge5" class="edge">
<title>difficulty.py-&gt;math</title>
<path fill="none" stroke="#000000" d="M186.8257,-303.9091C206.8487,-303.9091 231.007,-303.9091 250.7142,-303.9091"/>
<polygon fill="#000000" stroke="#000000" points="250.8587,-307.4092 260.8586,-303.9091 250.8586,-300.4092 250.8587,-307.4092"/>
</g>
<!-- pickle.py -->
<g id="node8" class="node">
<title>pickle.py</title>
<ellipse fill="none" stroke="#000000" cx="543.1741" cy="-239.9091" rx="31.6657" ry="18"/>
<text text-anchor="middle" x="543.1741" y="-236.9091" font-family="Times,serif" font-size="10.00" fill="#000000">pickle.py</text>
</g>
<!-- difficulty.py&#45;&gt;pickle.py -->
<g id="edge6" class="edge">
<title>difficulty.py-&gt;pickle.py</title>
<path fill="none" stroke="#000000" d="M178.6353,-292.7813C195.2928,-287.2705 216.2033,-280.9491 235.3033,-276.9091 329.2096,-257.046 441.6478,-246.9035 501.2538,-242.5763"/>
<polygon fill="#000000" stroke="#000000" points="501.6751,-246.0553 511.4034,-241.8589 501.1815,-239.0727 501.6751,-246.0553"/>
</g>
<!-- main.py -->
<g id="node9" class="node">
<title>main.py</title>
<ellipse fill="#d3d3d3" stroke="#000000" cx="30.1741" cy="-335.9091" rx="29.3271" ry="18"/>
<text text-anchor="middle" x="30.1741" y="-332.9091" font-family="Times,serif" font-size="10.00" fill="#000000">main.py</text>
</g>
<!-- main.py&#45;&gt;UseSqlite.py -->
<g id="edge7" class="edge">
<title>main.py-&gt;UseSqlite.py</title>
<path fill="none" stroke="#000000" d="M32.5807,-354.056C38.5662,-394.4427 56.8157,-493.7868 99.3118,-564.9091 104.7444,-574.0011 112.2728,-582.6329 119.7519,-590.0044"/>
<polygon fill="#000000" stroke="#000000" points="117.446,-592.6401 127.1352,-596.9261 122.2335,-587.5333 117.446,-592.6401"/>
</g>
<!-- main.py&#45;&gt;WordFreq.py -->
<g id="edge8" class="edge">
<title>main.py-&gt;WordFreq.py</title>
<path fill="none" stroke="#000000" d="M36.0735,-353.7733C46.2804,-383.2519 69.0781,-443.2601 99.3118,-487.9091 105.5778,-497.1626 113.6077,-506.2916 121.293,-514.1652"/>
<polygon fill="#000000" stroke="#000000" points="119.2151,-517.033 128.7853,-521.5785 124.1385,-512.057 119.2151,-517.033"/>
</g>
<!-- main.py&#45;&gt;wordfreqCMD.py -->
<g id="edge12" class="edge">
<title>main.py-&gt;wordfreqCMD.py</title>
<path fill="none" stroke="#000000" d="M37.7076,-353.4424C48.2181,-375.7869 69.4132,-414.0129 99.3118,-434.9091 136.7791,-461.095 187.1389,-473.5673 226.4333,-479.5076"/>
<polygon fill="#000000" stroke="#000000" points="226.0372,-482.9862 236.4276,-480.9151 227.0135,-476.0546 226.0372,-482.9862"/>
</g>
<!-- main.py&#45;&gt;difficulty.py -->
<g id="edge9" class="edge">
<title>main.py-&gt;difficulty.py</title>
<path fill="none" stroke="#000000" d="M57.0163,-328.5676C70.6306,-324.8441 87.5185,-320.2252 102.9846,-315.9951"/>
<polygon fill="#000000" stroke="#000000" points="104.1717,-319.2991 112.8941,-313.2848 102.3249,-312.547 104.1717,-319.2991"/>
</g>
<!-- main.py&#45;&gt;pickle_idea.py -->
<g id="edge10" class="edge">
<title>main.py-&gt;pickle_idea.py</title>
<path fill="none" stroke="#000000" d="M59.3737,-336.6276C114.5162,-337.721 237.7171,-338.908 341.0449,-330.9091 352.2237,-330.0437 364.165,-328.6705 375.4856,-327.157"/>
<polygon fill="#000000" stroke="#000000" points="376.2467,-330.5849 385.668,-325.7381 375.2806,-323.6518 376.2467,-330.5849"/>
</g>
<!-- pickle_idea2.py -->
<g id="node11" class="node">
<title>pickle_idea2.py</title>
<ellipse fill="#d3d3d3" stroke="#000000" cx="147.1741" cy="-227.9091" rx="47.725" ry="18"/>
<text text-anchor="middle" x="147.1741" y="-224.9091" font-family="Times,serif" font-size="10.00" fill="#000000">pickle_idea2.py</text>
</g>
<!-- main.py&#45;&gt;pickle_idea2.py -->
<g id="edge11" class="edge">
<title>main.py-&gt;pickle_idea2.py</title>
<path fill="none" stroke="#000000" d="M46.4425,-320.8922C65.7641,-303.0568 98.2466,-273.073 121.0909,-251.9859"/>
<polygon fill="#000000" stroke="#000000" points="123.7579,-254.2873 128.7319,-244.9326 119.0099,-249.1437 123.7579,-254.2873"/>
</g>
<!-- datetime -->
<g id="node12" class="node">
<title>datetime</title>
<ellipse fill="none" stroke="#000000" cx="288.1741" cy="-122.9091" rx="30.1555" ry="18"/>
<text text-anchor="middle" x="288.1741" y="-119.9091" font-family="Times,serif" font-size="10.00" fill="#000000">datetime</text>
</g>
<!-- main.py&#45;&gt;datetime -->
<g id="edge13" class="edge">
<title>main.py-&gt;datetime</title>
<path fill="none" stroke="#000000" d="M34.9118,-318.1344C43.335,-289.7218 63.4882,-233.9212 99.3118,-200.9091 142.2102,-161.3775 207.9241,-140.4483 249.442,-130.5343"/>
<polygon fill="#000000" stroke="#000000" points="250.2251,-133.9456 259.1919,-128.3024 248.663,-127.1221 250.2251,-133.9456"/>
</g>
<!-- glob.py -->
<g id="node13" class="node">
<title>glob.py</title>
<ellipse fill="none" stroke="#000000" cx="147.1741" cy="-99.9091" rx="27.6597" ry="18"/>
<text text-anchor="middle" x="147.1741" y="-96.9091" font-family="Times,serif" font-size="10.00" fill="#000000">glob.py</text>
</g>
<!-- main.py&#45;&gt;glob.py -->
<g id="edge14" class="edge">
<title>main.py-&gt;glob.py</title>
<path fill="none" stroke="#000000" d="M34.2607,-317.8965C42.6404,-283.3582 64.0095,-206.2523 99.3118,-149.9091 105.7598,-139.618 114.576,-129.6599 122.8857,-121.3756"/>
<polygon fill="#000000" stroke="#000000" points="125.4946,-123.7231 130.2922,-114.2767 120.6509,-118.6695 125.4946,-123.7231"/>
</g>
<!-- main.py&#45;&gt;os.py -->
<g id="edge15" class="edge">
<title>main.py-&gt;os.py</title>
<path fill="none" stroke="#000000" d="M57.6584,-342.4223C70.2976,-345.2755 85.5167,-348.5122 99.3118,-350.9091 204.1583,-369.1257 329.0717,-383.5068 390.0175,-390.0557"/>
<polygon fill="#000000" stroke="#000000" points="389.9707,-393.5704 400.2853,-391.1497 390.7125,-386.6098 389.9707,-393.5704"/>
</g>
<!-- random.py -->
<g id="node15" class="node">
<title>random.py</title>
<ellipse fill="none" stroke="#000000" cx="147.1741" cy="-24.9091" rx="35.5144" ry="18"/>
<text text-anchor="middle" x="147.1741" y="-21.9091" font-family="Times,serif" font-size="10.00" fill="#000000">random.py</text>
</g>
<!-- main.py&#45;&gt;random.py -->
<g id="edge16" class="edge">
<title>main.py-&gt;random.py</title>
<path fill="none" stroke="#000000" d="M31.6762,-317.7793C36.0263,-273.2858 51.5315,-156.2599 99.3118,-72.9091 104.667,-63.5672 112.3085,-54.7713 119.9178,-47.3245"/>
<polygon fill="#000000" stroke="#000000" points="122.4783,-49.7234 127.4305,-40.3572 117.7183,-44.5908 122.4783,-49.7234"/>
</g>
<!-- pickle_idea.py&#45;&gt;pickle.py -->
<g id="edge17" class="edge">
<title>pickle_idea.py-&gt;pickle.py</title>
<path fill="none" stroke="#000000" d="M450.092,-303.3012C468.4971,-290.7667 494.4518,-273.0907 514.2801,-259.5869"/>
<polygon fill="#000000" stroke="#000000" points="516.3409,-262.4181 522.636,-253.8962 512.4006,-256.6324 516.3409,-262.4181"/>
</g>
<!-- pickle_idea2.py&#45;&gt;pickle.py -->
<g id="edge19" class="edge">
<title>pickle_idea2.py-&gt;pickle.py</title>
<path fill="none" stroke="#000000" d="M194.3855,-224.576C257.7302,-220.7982 373.6555,-216.3218 472.0297,-225.9091 482.3661,-226.9164 493.4291,-228.7285 503.6769,-230.722"/>
<polygon fill="#000000" stroke="#000000" points="503.0969,-234.1758 513.5958,-232.7529 504.5011,-227.318 503.0969,-234.1758"/>
</g>
<!-- pickle_idea2.py&#45;&gt;datetime -->
<g id="edge18" class="edge">
<title>pickle_idea2.py-&gt;datetime</title>
<path fill="none" stroke="#000000" d="M168.8964,-211.733C193.5721,-193.3574 233.8851,-163.3371 260.7189,-143.3544"/>
<polygon fill="#000000" stroke="#000000" points="262.9907,-146.0266 268.9207,-137.2467 258.8098,-140.4123 262.9907,-146.0266"/>
</g>
</g>
</svg>